# xmcd
#
# Track frame offsets: 
#        150
#        17162
#        55510
#
# Disc length: 1146 seconds
#
# Revision: 2
# Processed by: cddbd v1.5.2PL0 Copyright (c) Steve Scherf et al.
# Submitted via: ExactAudioCopy v0.99pb3
#
DISCID=19047803
DTITLE=Timo Maas - Der Schieber
DYEAR=2000
DGENRE=House
TTITLE0=Der Schieber (Radio Edit)
TTITLE1=Der Schieber (Rapid Eye Remix)
TTITLE2=Der Schieber (Timo Maas 'Funkin' For Hope In NY Mix)
EXTD=
EXTT0=
EXTT1=
EXTT2=
PLAYORDER=
